# xmcd
#
# Track frame offsets:
#	187
#	11228
#	28019
#	42154
#	57587
#	73165
#	87012
#	99613
#	113963
#	128621
#	140297
#	151160
#
# Disc length: 2203 seconds
#
# Revision: 1
# Processed by: cddbd v1.5.2PL0 Copyright (c) Steve Scherf et al.
# Submitted via: audiograbber 1.83.01
#
DISCID=9e08990c
DTITLE=Eddy Raven - I Got Mexico
DYEAR=1996
DGENRE=Country
TTITLE0=I Got Mexico
TTITLE1=Joe Knows How To Live
TTITLE2=Operator, Operator
TTITLE3=Shine Shine Shine
TTITLE4=You Should Have Been Gone By Now
TTITLE5=Right Hand Man
TTITLE6=I Could Use Another You
TTITLE7=I Should've Valled
TTITLE8=I Wanna Hear It From You
TTITLE9=I'm Gonna Get You
TTITLE10=Love Lifted Me
TTITLE11=Leaning On The Everlast Arms
EXTD=(c) 1996 Kingfisher Record
EXTT0=
EXTT1=
EXTT2=
EXTT3=
EXTT4=
EXTT5=
EXTT6=
EXTT7=
EXTT8=
EXTT9=
EXTT10=
EXTT11=
PLAYORDER=
